<?xml version="1.0" encoding="UTF-8" standalone="no"?>
<svg
   xmlns:dc="http://purl.org/dc/elements/1.1/"
   xmlns:cc="http://creativecommons.org/ns#"
   xmlns:rdf="http://www.w3.org/1999/02/22-rdf-syntax-ns#"
   xmlns:svg="http://www.w3.org/2000/svg"
   xmlns="http://www.w3.org/2000/svg"
   version="1.1"
   width="583.9129"
   height="510.49353"
   id="svg13549">
  <defs
     id="defs13551" />
  <metadata
     id="metadata13554">
    <rdf:RDF>
      <cc:Work
         rdf:about="">
        <dc:format>image/svg+xml</dc:format>
        <dc:type
           rdf:resource="http://purl.org/dc/dcmitype/StillImage" />
        <dc:title></dc:title>
      </cc:Work>
    </rdf:RDF>
  </metadata>
  <g
     transform="translate(-83.035003,-277.12812)"
     id="layer1">
    <path
       d="m 512.3913,390.68749 91.71878,40.19475 -60.65321,53.65516 -59.69976,-27.07561 -0.50567,-43.67372 z"
       id="rect9114-6-7-2"
       style="fill:#fff000;fill-opacity:1;stroke:none" />
    <path
       d="m 603.33647,430.54925 -59.78421,52.28831 0,95.51943 8.14537,1.50967 49.15192,-47.24787 z"
       id="rect8567-7-3-9-7-4"
       style="fill:#f89c0e;fill-opacity:1;stroke:none" />
    <path
       d="m 397.0725,345.95698 86.51471,39.0796 -57.47673,53.00299 -92.86147,-39.92919 z"
       id="rect9114-6-7"
       style="fill:#fff000;fill-opacity:1;stroke:none" />
    <path
       d="m 482.31356,385.69483 -56.55822,51.47336 -1.98251,58.60061 23.0141,11.3646 c 87.42069,35.74188 23.68441,-17.12548 35.52663,-25.68823 z"
       id="rect8567-7-3-9-7"
       style="fill:#f89c0e;fill-opacity:1;stroke:none" />
    <path
       d="m 333.48247,395.51544 92.64083,41.25393 0,61.22994 -12.02917,-6.41533 -30.41096,21.5912 -48.79886,-18.75529 z"
       id="rect8567-9-3"
       style="fill:#fbc707;fill-opacity:1;stroke:none" />
    <path
       d="m 413.04296,490.81235 83.21326,39.98582 -65.19735,57.78102 -84.35231,-37.61041 z"
       id="rect9114-6"
       style="fill:#fff000;fill-opacity:1;stroke:none" />
    <path
       d="m 496.63662,530.3642 -65.65114,58.08677 -0.7123,95.48173 65.85903,-55.84978 z"
       id="rect8567-7-3-9"
       style="fill:#f89c0e;fill-opacity:1;stroke:none" />
    <path
       d="m 346.74794,549.57322 84.28767,38.83562 0,95.22807 -85.27894,-37.81253 z"
       id="rect8567-9"
       style="fill:#fbc707;fill-opacity:1;stroke:none" />
    <path
       d="m 483.94324,478.4691 -0.36119,-19.61016 8.05958,2.17134 49.97968,25.31226 -48.53859,43.91141 -45.23677,-21.36756 z"
       id="rect8567-7-0-2-5"
       style="fill:#d7705a;fill-opacity:1;stroke:none" />
    <path
       d="m 541.25576,484.48998 -48.57784,44.28385 2.96068,1.01572 2.3293,81.87701 43.34431,-34.48218 z"
       id="rect8567-7-3-2-6-8"
       style="fill:#be161c;fill-opacity:1;stroke:none" />
    <path
       d="m 603.4907,529.34166 -0.44259,-23.97905 61.27326,27.17777 -59.29138,56.05874 -40.50555,-20.14094 z"
       id="rect8567-7-0-2-9"
       style="fill:#d7705a;fill-opacity:1;stroke:none" />
    <path
       d="m 661.57067,532.19333 -58.76819,52.39378 -0.12393,99.76805 58.58929,-51.82991 z"
       id="rect8567-7-3-2-6"
       style="fill:#be161c;fill-opacity:1;stroke:none" />
    <path
       d="m 540.65976,577.05074 8.0486,3.19032 16.06614,-14.70942 38.49858,19.13014 0,98.58304 C 574.84975,666.94288 582.7842,674.77548 554.0064,659.10491 l -1.15528,-29.00904 -46.91916,-22.99464 z"
       id="rect8567-7-0-8"
       style="fill:#ce4e33;fill-opacity:1;stroke:none" />
    <path
       d="m 354.97642,779.86311 0.0472,-111.78758"
       transform="matrix(1.0680649,0.03325035,4.5061323e-4,0.84385781,224.28481,9.9317178)"
       id="path14272-8-5-2"
       style="fill:none;stroke:#940808;stroke-width:5.26671886;stroke-linecap:round;stroke-linejoin:round;stroke-miterlimit:4;stroke-opacity:1;stroke-dasharray:none" />
    <g
       aria-label="α"
       transform="matrix(0.94592587,0.48665862,0,1.0571653,0,0)"
       id="text4644-9-3"
       style="font-style:normal;font-variant:normal;font-weight:normal;font-stretch:normal;font-size:74.175px;line-height:125%;font-family:'TeX Gyre Pagella';-inkscape-font-specification:'TeX Gyre Pagella';letter-spacing:0px;word-spacing:0px;fill:#000000;fill-opacity:1;stroke:none">
      <path
         d="m 565.5018,319.49596 c 0.44505,2.44778 2.22524,5.71147 4.00544,5.71147 3.04118,0 5.26643,-1.48349 7.34333,-3.18952 2.81865,-2.6703 5.71147,-6.00817 7.71419,-8.6043 2.22525,7.7142 5.26643,11.79382 8.23343,11.79382 1.70602,0 3.85709,-1.26097 6.08234,-3.41204 l 3.2637,-3.2637 -0.96427,-1.40933 c -2.44778,2.29943 -4.22798,2.89283 -5.48895,2.89283 -1.1868,0 -2.15107,-0.22253 -3.18952,-1.63185 -0.96428,-1.40933 -2.44778,-4.52468 -3.18953,-6.74993 l -1.1868,-3.48622 c 1.85438,-2.967 3.5604,-6.2307 4.37633,-7.86255 0.81592,-1.55767 2.96699,-6.00817 3.11534,-7.49167 -0.5934,-0.81592 -1.03845,-1.4835 -1.63184,-2.59612 -0.2967,-0.14835 -0.96428,-0.37088 -1.26098,-0.51923 -0.74175,6.15653 -1.40932,8.23342 -3.48622,12.60975 -0.22253,0.44505 -1.1868,2.29942 -1.85438,3.5604 l -4.59885,-13.57402 c -1.26097,-3.33788 -3.48622,-3.63458 -5.11807,-3.63458 -1.70602,0.0742 -4.07962,1.33515 -6.2307,3.63458 -1.63185,1.63185 -2.74447,3.5604 -3.70875,5.85982 -2.29942,6.60157 -3.26369,15.42839 -2.22524,21.36239 z m 5.48894,-2.44777 c -0.81592,-4.7472 -0.96427,-12.7581 0.51923,-18.91462 0.5934,-2.44777 2.15107,-4.59885 3.8571,-4.59885 2.29942,0 3.33787,1.33515 4.37632,4.59885 l 4.07962,12.98062 c -1.7802,2.52195 -3.63457,4.7472 -5.34059,6.30487 -2.0769,1.92855 -4.1538,2.59613 -5.56313,2.59613 -0.96427,0 -1.55767,-1.03845 -1.92855,-2.967 z"
         id="path1241" />
    </g>
    <path
       d="m 496.63373,624.56756 1.21588,-12.42574 8.76049,-4.48739 48.05216,23.73519 -58.17622,59.15639 -45.08643,-26.92724 z"
       id="rect8567-7-0-2"
       style="fill:#d7705a;fill-opacity:1;stroke:none" />
    <path
       d="m 553.18646,629.34 -57.03349,51.1151 -0.61953,101.77726 58.7044,-57.10655 z"
       id="rect8567-7-3-2"
       style="fill:#be161c;fill-opacity:1;stroke:none" />
    <path
       d="m 404.19947,672.19261 26.52971,10.95712 24.13185,-23.77283 41.65271,20.72481 0,101.11612 -92.31169,-42.46424 z"
       id="rect8567-7-0"
       style="fill:#ce4e33;fill-opacity:1;stroke:none" />
    <path
       d="m 354.97642,779.86311 0.0472,-111.78758"
       transform="matrix(1.0680649,0.03325035,4.5061323e-4,0.84385781,116.76073,107.66685)"
       id="path14272-8-5"
       style="fill:none;stroke:#9f2929;stroke-width:5.26671886;stroke-linecap:round;stroke-linejoin:round;stroke-miterlimit:4;stroke-opacity:1;stroke-dasharray:none" />
    <path
       d="m 313.16647,444.66282 17.9485,9.98809 -0.0852,34.13979 52.49349,28.82342 -35.5362,36.01647 -95.17469,-47.06166 z"
       id="rect9114-42"
       style="fill:#c8bee4;fill-opacity:1;stroke:none" />
    <path
       d="m 253.34907,502.02211 96.2636,43.04662 0.50335,59.39544 -23.25667,-12.66856 -26.3485,23.50605 -46.98656,-22.5295 z"
       id="rect8567-8"
       style="fill:#9c8dce;fill-opacity:1;stroke:none" />
    <path
       d="m 325.89935,592.10601 21.27788,10.01312 1.91744,41.89994 33.88065,15.24447 -27.28695,26.33995 -88.86643,-37.42401 z"
       id="rect9114-4"
       style="fill:#c8bee4;fill-opacity:1;stroke:none" />
    <path
       d="m 239.88726,553.543 13.91824,5.9578 -0.0852,34.1398 45.87878,23.02474 -30.76143,36.55824 -92.63387,-42.41805 z"
       id="rect9114"
       style="fill:#c8bee4;fill-opacity:1;stroke:none" />
    <path
       d="m 270.70262,646.10178 84.13775,38.18816 0,99.75102 c -28.42336,-16.30193 -55.35992,-24.73837 -84.13775,-40.40895 z"
       id="rect8567-7"
       style="fill:#9c8dce;fill-opacity:1;stroke:none" />
    <path
       d="m 381.43462,659.41256 -27.01103,24.60672 0,98.86545 51.84537,-43.78177 -0.31241,-65.73475 z"
       id="rect8567-7-3"
       style="fill:#42386d;fill-opacity:1;stroke:none" />
    <path
       d="m 354.97642,779.86311 0.0472,-111.78758"
       transform="matrix(1.0680649,0.03325035,4.5061323e-4,0.84385781,-24.821129,108.52891)"
       id="path14272-8"
       style="fill:none;stroke:#593e6a;stroke-width:5.26671886;stroke-linecap:round;stroke-linejoin:round;stroke-miterlimit:4;stroke-opacity:1;stroke-dasharray:none" />
    <path
       d="m 175.45284,608.0143 93.37233,43.07259 -1.46293,92.68001 -13.55674,0.72621 -78.35266,-41.80476 z"
       id="rect8567"
       style="fill:#9c8dce;fill-opacity:1;stroke:none" />
    <g
       transform="matrix(3.4157835,0,0,3.4157835,-543.12322,-747.81068)"
       id="g4628">
      <path
         d="m 267.59375,390.94199 0,13.125 1.5,0.61602 0,-13.125 -1.5,-0.61602 z"
         id="path1648"
         style="font-size:medium;font-style:normal;font-variant:normal;font-weight:normal;font-stretch:normal;text-indent:0;text-align:start;text-decoration:none;line-height:normal;letter-spacing:normal;word-spacing:normal;text-transform:none;direction:ltr;block-progression:tb;writing-mode:lr-tb;text-anchor:start;baseline-shift:baseline;color:#000000;fill:#231f20;fill-opacity:1;stroke:none;stroke-width:1.5;marker:none;visibility:visible;display:inline;overflow:visible;enable-background:accumulate;font-family:Sans;-inkscape-font-specification:Sans" />
      <path
         d="m 268.96875,396.87058 -0.0156,1.68749 10.03125,4.75 -0.0156,-1.68749 z"
         id="path1650"
         style="font-size:medium;font-style:normal;font-variant:normal;font-weight:normal;font-stretch:normal;text-indent:0;text-align:start;text-decoration:none;line-height:normal;letter-spacing:normal;word-spacing:normal;text-transform:none;direction:ltr;block-progression:tb;writing-mode:lr-tb;text-anchor:start;baseline-shift:baseline;color:#000000;fill:#231f20;fill-opacity:1;stroke:none;stroke-width:1.5;marker:none;visibility:visible;display:inline;overflow:visible;enable-background:accumulate;font-family:Sans;-inkscape-font-specification:Sans" />
    </g>
    <g
       transform="matrix(2.8036733,0,0,2.8036733,-386.24828,-506.22786)"
       id="g4632">
      <path
         d="m 236.6054,374.04877 -0.0173,1.87384 15.61542,7.426 -0.0173,-1.87384 z"
         id="path1650-4"
         style="font-size:medium;font-style:normal;font-variant:normal;font-weight:normal;font-stretch:normal;text-indent:0;text-align:start;text-decoration:none;line-height:normal;letter-spacing:normal;word-spacing:normal;text-transform:none;direction:ltr;block-progression:tb;writing-mode:lr-tb;text-anchor:start;baseline-shift:baseline;color:#000000;fill:#231f20;fill-opacity:1;stroke:none;stroke-width:1.5;marker:none;visibility:visible;display:inline;overflow:visible;enable-background:accumulate;font-family:Sans;-inkscape-font-specification:Sans" />
      <path
         d="m 236.6054,381.71767 -0.0173,1.87384 15.61542,7.426 -0.0173,-1.87384 z"
         id="path1650-4-6"
         style="font-size:medium;font-style:normal;font-variant:normal;font-weight:normal;font-stretch:normal;text-indent:0;text-align:start;text-decoration:none;line-height:normal;letter-spacing:normal;word-spacing:normal;text-transform:none;direction:ltr;block-progression:tb;writing-mode:lr-tb;text-anchor:start;baseline-shift:baseline;color:#000000;fill:#231f20;fill-opacity:1;stroke:none;stroke-width:1.5;marker:none;visibility:visible;display:inline;overflow:visible;enable-background:accumulate;font-family:Sans;-inkscape-font-specification:Sans" />
    </g>
    <text
       x="216.63254"
       y="442.97165"
       transform="matrix(0.92733873,0.42936984,-0.14430118,1.0115413,0,0)"
       id="text3630-9"
       xml:space="preserve"
       style="font-size:74.29076385px;font-style:normal;font-weight:normal;line-height:125%;letter-spacing:0px;word-spacing:0px;fill:#000000;fill-opacity:1;stroke:none;font-family:Sans"><tspan
         x="216.63254"
         y="442.97165"
         id="tspan3632-2"
         style="font-style:normal;font-variant:normal;font-weight:normal;font-stretch:normal;font-family:TeX Gyre Pagella;-inkscape-font-specification:TeX Gyre Pagella" /></text>
    <g
       aria-label="A"
       transform="matrix(-1.0033569,-0.47426264,-0.01242653,-1.0025281,0,0)"
       id="text4640"
       style="font-style:normal;font-weight:normal;font-size:78.1282px;line-height:125%;font-family:Sans;letter-spacing:0px;word-spacing:0px;fill:#000000;fill-opacity:1;stroke:none">
      <path
         d="m -370.8915,-309.62561 -10.4527,28.34437 h 20.94355 z m -4.34894,-7.59157 h 8.73602 l 21.70653,56.9558 h -8.01119 l -5.18821,-14.6109 h -25.67398 l -5.1882,14.6109 h -8.12564 z"
         style="font-style:normal;font-variant:normal;font-weight:normal;font-stretch:normal;font-family:'Droid Sans';-inkscape-font-specification:'Droid Sans'"
         id="path1232" />
    </g>
    <g
       aria-label="β"
       transform="matrix(0.95142086,0.47582633,0.01207069,1.0570964,0,0)"
       id="text4644"
       style="font-style:normal;font-variant:normal;font-weight:normal;font-stretch:normal;font-size:67.1487px;line-height:125%;font-family:'TeX Gyre Pagella';-inkscape-font-specification:'TeX Gyre Pagella';letter-spacing:0px;word-spacing:0px;fill:#000000;fill-opacity:1;stroke:none">
      <path
         d="m 309.85299,521.2601 0.26859,43.10949 1.14153,0.53719 c 1.67872,-0.53719 2.21591,-0.87293 4.16322,-1.14153 -0.60434,-5.97624 -1.61157,-13.56404 -1.41012,-18.80165 3.02169,1.47728 5.77479,2.08162 9.40082,2.08162 10.7438,0 18.06301,-7.38637 16.31714,-16.51859 -0.67148,-3.49174 -2.21591,-5.43905 -5.03615,-7.18492 -1.94732,-1.20868 -3.62603,-1.81301 -7.11777,-2.6188 l -0.0671,-0.33574 c 0,-0.87294 0.33575,-1.67872 1.20868,-3.08884 0.20145,-0.2686 0.47004,-0.67149 0.60434,-0.94009 3.55888,-5.2376 4.56611,-7.31921 3.89463,-11.01239 -0.73864,-3.69318 -4.23038,-6.78202 -7.85641,-6.78202 -2.88739,0 -7.5878,2.14876 -11.07954,5.1033 -3.49173,2.8874 -4.02892,5.2376 -4.16322,9.19938 z m 4.36466,13.89979 0.67149,-14.30268 c 0.20145,-6.78202 0.40289,-11.95248 0.60434,-13.42975 0.60434,-3.49173 3.22314,-5.50619 6.71487,-5.50619 3.49174,0 6.31198,2.3502 7.05062,5.77479 0.53719,2.95454 -0.20145,4.70041 -3.02169,9.93801 -1.67872,1.67872 -2.7531,2.55165 -5.6405,2.55165 -0.60434,0 -1.27582,0 -1.54442,-0.0671 -0.53719,-0.0671 -0.87293,-0.0671 -1.61157,-0.0671 l -0.67148,2.8874 0.53718,0.80578 c 2.41736,-0.87293 3.55889,-1.07438 5.23761,-1.07438 6.11053,0 10.13946,2.61881 11.21384,8.32645 0.80578,4.09607 -0.0672,8.12499 -2.41736,10.87809 -1.54442,1.94732 -3.82748,2.8874 -6.84917,2.8874 -5.30475,0 -9.13223,-2.7531 -10.00516,-7.18492 -0.0671,-0.67148 -0.20145,-1.34297 -0.2686,-2.41735 z"
         id="path1238" />
    </g>
    <g
       aria-label="λ"
       transform="matrix(0.94592587,0.48665862,0,1.0571653,0,0)"
       id="text4644-9"
       style="font-style:normal;font-variant:normal;font-weight:normal;font-stretch:normal;font-size:74.175px;line-height:125%;font-family:'TeX Gyre Pagella';-inkscape-font-specification:'TeX Gyre Pagella';letter-spacing:0px;word-spacing:0px;fill:#000000;fill-opacity:1;stroke:none">
      <path
         d="m 210.91093,558.61036 1.85438,1.63185 c 1.26097,-0.66757 2.29942,-1.03845 4.07962,-1.63185 3.93127,-11.20042 6.2307,-18.02452 13.0548,-30.11504 l 10.82954,29.44747 c 0.44505,1.26097 1.4835,2.0769 2.74448,2.0769 1.92855,0 4.45049,-1.63185 10.90372,-6.97245 l -0.96428,-1.33515 -1.7802,1.26097 c -2.00272,1.4835 -3.70875,2.22525 -4.37632,2.22525 -0.2967,0 -0.5934,0 -1.70602,-1.40932 -0.74175,-0.8901 -1.4835,-2.6703 -2.6703,-5.19225 l -9.64275,-25.88706 c -3.8571,-10.3845 -7.49167,-15.65092 -11.2746,-16.09597 -1.7802,1.63185 -4.52467,3.48622 -6.00817,4.52467 l 0.0742,1.7802 c 1.40932,-0.51923 3.56039,-1.40933 4.22797,-1.40933 2.0769,0 4.67302,3.33788 6.2307,7.64003 l 2.52195,6.89827 c -5.19225,8.0109 -15.1317,26.62881 -18.0987,32.56281 z"
         id="path1235" />
    </g>
    <text
       x="444.88138"
       y="493.30414"
       transform="matrix(0.94592587,0.43528282,0,1.0571653,0,0)"
       id="text4644-8"
       xml:space="preserve"
       style="font-size:67.14873505px;font-style:normal;font-variant:normal;font-weight:normal;font-stretch:normal;line-height:125%;letter-spacing:0px;word-spacing:0px;fill:#000000;fill-opacity:1;stroke:none;font-family:TeX Gyre Pagella;-inkscape-font-specification:TeX Gyre Pagella"><tspan
         x="444.88138"
         y="493.30414"
         id="tspan4646-1">→</tspan></text>
    <g
       transform="matrix(0.69382762,-0.76328282,0.48011419,0.91310446,0,0)"
       id="text1654"
       style="font-size:35.36756897px">
      <path
         d="m -181.66016,510.86905 c 0.39521,-4.85047 0.68265,-10.0782 0.8623,-15.68321 0.21557,-5.60498 0.32336,-12.91661 0.32337,-21.93494 -1e-5,-8.73081 -0.1078,-16.04245 -0.32337,-21.93493 -0.17965,-5.9283 -0.46709,-11.20992 -0.8623,-15.8449 1.58088,0.21566 3.16178,0.3953 4.74269,0.53895 1.61681,0.10786 3.23363,0.16175 4.85047,0.16168 1.61681,7e-5 3.21567,-0.0538 4.79659,-0.16168 1.58087,-0.14365 3.1438,-0.32329 4.68879,-0.53895 -0.43118,4.70683 -0.75455,10.02439 -0.9701,15.95269 -0.17967,5.92841 -0.26949,13.20412 -0.26947,21.82714 -2e-5,9.37762 0.0898,16.85094 0.26947,22.41999 0.21555,5.53314 0.52095,10.59919 0.91621,15.19816 -1.76057,-0.17965 -3.43129,-0.3054 -5.01216,-0.37726 -1.54499,-0.10779 -3.0181,-0.16168 -4.41933,-0.16168 -1.47312,0 -3.00012,0.0539 -4.581,0.16168 -1.54498,0.0719 -3.2157,0.19761 -5.01216,0.37726"
         id="path3118"
         style="font-size:110.37530518px;font-variant:normal;font-weight:bold;writing-mode:lr-tb;fill:#231f20;fill-opacity:1;fill-rule:nonzero;stroke:none;font-family:ZapfHumnst BT;-inkscape-font-specification:ZapfHumnst BT" />
      <path
         d="m -147.46409,495.72478 1.56293,0 c 1.18566,3.62889 3.01806,6.43138 5.49721,8.4075 2.51504,1.97612 5.42533,2.96418 8.73086,2.96418 2.62282,0 4.65283,-0.64673 6.09004,-1.9402 1.43715,-1.29345 2.15574,-3.10788 2.15577,-5.44331 -3e-5,-2.98213 -3.55705,-5.94631 -10.67105,-8.89254 -0.97012,-0.3952 -1.70667,-0.7006 -2.20966,-0.9162 -5.06607,-2.11982 -8.56919,-4.29355 -10.50937,-6.5212 -1.90427,-2.26353 -2.8564,-5.13788 -2.85639,-8.62307 -10e-6,-5.38938 1.83239,-9.73684 5.4972,-13.04239 3.70072,-3.30546 8.60509,-4.95822 14.71312,-4.95827 2.8384,5e-5 5.56903,0.39528 8.19191,1.18567 2.62282,0.75457 5.19177,1.90432 7.70687,3.44923 -0.75455,1.68873 -1.40128,3.39538 -1.94019,5.11995 -0.53898,1.72466 -0.97013,3.4852 -1.29346,5.28163 l -1.07788,0 c -1.61686,-3.37733 -3.52112,-5.91035 -5.71279,-7.59908 -2.15579,-1.68864 -4.59899,-2.53298 -7.32961,-2.53303 -2.2995,5e-5 -4.20376,0.64678 -5.71278,1.94019 -1.47312,1.25758 -2.20968,2.89237 -2.20966,4.90437 -2e-5,1.6528 0.53892,3.03608 1.61682,4.14986 1.07787,1.07792 3.66479,2.40731 7.76077,3.98817 8.01223,3.12589 13.00642,5.80263 14.98258,8.03023 2.01201,2.22765 3.01803,5.17387 3.01808,8.83865 -5e-5,5.60501 -1.94023,10.15008 -5.82057,13.63523 -3.84449,3.44923 -8.89257,5.17384 -15.14427,5.17384 -3.44925,0 -6.50325,-0.35929 -9.16202,-1.07788 -2.65879,-0.68266 -5.08402,-1.76054 -7.27571,-3.23365 0.17964,-1.32939 0.57486,-4.76065 1.18567,-10.29379 l 0.21558,-1.99409"
         id="path3120"
         style="font-size:110.37530518px;font-variant:normal;font-weight:bold;writing-mode:lr-tb;fill:#231f20;fill-opacity:1;fill-rule:nonzero;stroke:none;font-family:ZapfHumnst BT;-inkscape-font-specification:ZapfHumnst BT" />
      <path
         d="m -72.498557,503.9167 c -1.580928,2.65878 -3.664835,4.70676 -6.251726,6.14394 -2.551017,1.43717 -5.443335,2.15576 -8.676965,2.15576 -4.634914,0 -8.281751,-1.36532 -10.940521,-4.09595 -2.622851,-2.76657 -3.934281,-6.52119 -3.934271,-11.26389 -10e-6,-3.48514 0.93416,-6.3595 2.802493,-8.62307 1.868324,-2.26353 4.796572,-4.06 8.784753,-5.38942 1.293444,-0.43113 3.161774,-1.02396 5.604996,-1.77851 5.748687,-1.72458 9.682959,-3.30548 11.802828,-4.74269 0.0359,-0.21554 0.05386,-0.44908 0.0539,-0.70062 0.0359,-0.2874 0.05386,-0.68263 0.05389,-1.18567 -3.3e-5,-3.3414 -0.952163,-6.00018 -2.856392,-7.97635 -1.90429,-1.97607 -4.437314,-2.96413 -7.599082,-2.96418 -2.479152,5e-5 -4.742706,0.70068 -6.790668,2.10188 -2.012063,1.40129 -3.880393,3.53909 -5.604996,6.41341 -0.538951,-1.72458 -0.988069,-3.10786 -1.347354,-4.14986 -0.359303,-1.04191 -0.718598,-2.012 -1.077884,-2.91028 3.26957,-2.83838 6.503218,-4.94025 9.700954,-6.30562 3.197702,-1.4012 6.521174,-2.10182 9.970426,-2.10188 6.610987,6e-5 11.677036,1.52706 15.198162,4.58101 3.556971,3.05405 5.335477,7.41948 5.335525,13.09629 l 0,0.53894 -0.323365,19.24023 0,2.10187 c -4.8e-5,4.49119 0.485,7.38351 1.455143,8.67697 1.005975,1.25753 2.946164,1.8863 5.820573,1.88629 l 0.323365,0 0,2.74861 c -1.868385,0.79044 -3.808574,1.38328 -5.820573,1.7785 -2.012097,0.43116 -3.934321,0.64673 -5.766678,0.64673 -2.658821,0 -4.832552,-0.66469 -6.521198,-1.99408 -1.68872,-1.36532 -2.820497,-3.34144 -3.395334,-5.92836 m -0.485047,-22.09662 c -5.102012,1.04198 -8.784778,2.62288 -11.04831,4.74269 -2.263576,2.11986 -3.395353,5.06607 -3.395334,8.83865 -1.9e-5,3.1618 0.574852,5.53314 1.724614,7.11403 1.149721,1.5809 2.856369,2.37135 5.119948,2.37134 2.443176,10e-6 4.311506,-0.88026 5.604996,-2.64081 1.329358,-1.76053 1.994052,-4.29356 1.994086,-7.59908 l 0,-12.82682"
         id="path3122"
         style="font-size:110.37530518px;font-variant:normal;font-weight:bold;writing-mode:lr-tb;fill:#231f20;fill-opacity:1;fill-rule:nonzero;stroke:none;font-family:ZapfHumnst BT;-inkscape-font-specification:ZapfHumnst BT" />
      <path
         d="m -17.028484,463.28048 c -3.844482,5e-5 -6.611047,1.72466 -8.299705,5.17384 -1.652779,3.41334 -2.479156,9.2339 -2.479133,17.46172 -2.3e-5,7.61706 0.77246,13.00648 2.31745,16.16826 1.54494,3.12586 4.113894,4.68879 7.70687,4.68879 3.916274,0 6.71877,-1.76054 8.4074935,-5.28163 1.688642,-3.557 2.5329835,-9.55722 2.533027,-18.00066 -4.35e-5,-7.36551 -0.7904909,-12.57527 -2.3713445,-15.62932 -1.545006,-3.05395 -4.14989,-4.58095 -7.814658,-4.581 m -26.030895,47.58857 c 0.395217,-4.81454 0.682652,-10.45546 0.862308,-16.92278 0.179639,-6.50321 0.269462,-14.65919 0.26947,-24.46796 -8e-6,-9.80869 -0.08983,-17.94671 -0.26947,-24.41407 -0.179656,-6.50316 -0.467091,-12.16204 -0.862308,-16.97667 1.832394,0.28752 3.377359,0.48513 4.634901,0.59284 1.293447,0.10787 2.515048,0.16176 3.664805,0.16168 1.149726,8e-5 2.371327,-0.0538 3.664805,-0.16168 1.32937,-0.14364 2.820441,-0.34125 4.473218,-0.59284 -0.179671,3.37745 -0.323389,6.48534 -0.431154,9.3237 -0.07188,2.80256 -0.107811,5.51524 -0.107788,8.13802 l 0,17.94676 c 2.012025,-2.37129 4.221684,-4.0959 6.628986,-5.17384 2.407241,-1.11376 5.281595,-1.67066 8.62307,-1.67072 6.4313291,6e-5 11.55127227,2.35343 15.3598451,7.06014 3.8084653,4.7068 5.7127249,11.04835 5.7127844,19.02465 -5.95e-5,9.01831 -2.2636133,16.2042 -6.7906682,21.55768 -4.4912309,5.35349 -10.5094096,8.03023 -18.0545543,8.03023 -3.233683,0 -6.108037,-0.6108 -8.623071,-1.8324 -2.515086,-1.2216 -4.904392,-3.16179 -7.167927,-5.82057 -1.868349,0.89824 -3.592962,1.86833 -5.173843,2.91028 -1.580908,1.00603 -3.054015,2.10188 -4.419323,3.28755 l -1.994086,0"
         id="path3124"
         style="font-size:110.37530518px;font-variant:normal;font-weight:bold;writing-mode:lr-tb;fill:#231f20;fill-opacity:1;fill-rule:nonzero;stroke:none;font-family:ZapfHumnst BT;-inkscape-font-specification:ZapfHumnst BT" />
      <path
         d="m 32.866288,484.62258 c -1.9e-5,6.35953 1.509017,11.40762 4.527112,15.14427 3.053978,3.73667 7.149932,5.605 12.287876,5.60499 2.550953,10e-6 4.994154,-0.43115 7.32961,-1.29346 2.335369,-0.8623 4.598923,-2.17372 6.790668,-3.93428 l 1.077884,0.80842 -2.425238,6.25172 c -2.299533,1.61683 -5.012204,2.8564 -8.138023,3.7187 -3.089972,0.86231 -6.449373,1.29346 -10.078214,1.29346 -8.587164,0 -15.323931,-2.53302 -20.210322,-7.59908 -4.850483,-5.06604 -7.275719,-12.07228 -7.275716,-21.01873 -3e-6,-8.04817 2.425233,-14.55139 7.275716,-19.5097 4.850462,-4.95821 11.263864,-7.43734 19.240226,-7.4374 7.581079,6e-5 13.383681,2.10193 17.407824,6.30562 4.059978,4.20379 6.089991,10.23994 6.090044,18.10845 -5.3e-5,0.9342 -0.01802,1.65278 -0.05389,2.15577 -5.3e-5,0.50304 -0.01802,0.95216 -0.0539,1.34735 l -33.791658,0.0539 m 0,-5.44332 18.701285,0 c -3.8e-5,-0.39519 0.01793,-0.88024 0.05389,-1.45514 0.03589,-0.61077 0.05386,-1.00599 0.05389,-1.18567 -3.8e-5,-4.99416 -0.736591,-8.76675 -2.209662,-11.31778 -1.437213,-2.55095 -3.575013,-3.82644 -6.413409,-3.82649 -3.233677,5e-5 -5.748737,1.45519 -7.545186,4.36543 -1.760564,2.91033 -2.640835,7.06018 -2.640816,12.44956 l 0,0.97009"
         id="path3126"
         style="font-size:110.37530518px;font-variant:normal;font-weight:bold;writing-mode:lr-tb;fill:#231f20;fill-opacity:1;fill-rule:nonzero;stroke:none;font-family:ZapfHumnst BT;-inkscape-font-specification:ZapfHumnst BT" />
      <path
         d="m 76.597759,510.86905 c 0.287429,-6.21579 0.503005,-12.70105 0.64673,-19.4558 0.143711,-6.75472 0.215569,-13.9945 0.215577,-21.71936 -8e-6,-8.19187 -0.07187,-15.66519 -0.215577,-22.41999 -0.143725,-6.7906 -0.359301,-13.18603 -0.64673,-19.18633 1.760535,0.28752 3.269571,0.48513 4.527112,0.59284 1.257519,0.10787 2.479119,0.16176 3.664805,0.16168 1.185656,8e-5 2.443186,-0.0538 3.772594,-0.16168 1.32937,-0.14364 2.820441,-0.34125 4.473218,-0.59284 -0.287459,6.21587 -0.503036,12.70113 -0.646731,19.4558 -0.14374,6.7548 -0.215599,13.99458 -0.215576,21.71936 -2.3e-5,8.19195 0.07184,15.68324 0.215576,22.47388 0.143695,6.75475 0.359272,13.13223 0.646731,19.13244 -1.221624,-0.25151 -2.515083,-0.43115 -3.880382,-0.53894 -1.365338,-0.14372 -2.78455,-0.21558 -4.257641,-0.21558 -1.473122,0 -2.892334,0.0719 -4.257642,0.21558 -1.365329,0.10779 -2.712682,0.28743 -4.042064,0.53894"
         id="path3128"
         style="font-size:110.37530518px;font-variant:normal;font-weight:bold;writing-mode:lr-tb;fill:#231f20;fill-opacity:1;fill-rule:nonzero;stroke:none;font-family:ZapfHumnst BT;-inkscape-font-specification:ZapfHumnst BT" />
      <path
         d="m 106.73017,510.86905 c 0.28743,-6.21579 0.50301,-12.70105 0.64674,-19.4558 0.14371,-6.75472 0.21556,-13.9945 0.21557,-21.71936 -10e-6,-8.19187 -0.0719,-15.66519 -0.21557,-22.41999 -0.14373,-6.7906 -0.35931,-13.18603 -0.64674,-19.18633 1.76054,0.28752 3.26958,0.48513 4.52712,0.59284 1.25752,0.10787 2.47912,0.16176 3.6648,0.16168 1.18566,8e-5 2.44319,-0.0538 3.7726,-0.16168 1.32937,-0.14364 2.82044,-0.34125 4.47321,-0.59284 -0.28746,6.21587 -0.50303,12.70113 -0.64673,19.4558 -0.14374,6.7548 -0.2156,13.99458 -0.21557,21.71936 -3e-5,8.19195 0.0718,15.68324 0.21557,22.47388 0.1437,6.75475 0.35927,13.13223 0.64673,19.13244 -1.22162,-0.25151 -2.51508,-0.43115 -3.88038,-0.53894 -1.36534,-0.14372 -2.78455,-0.21558 -4.25764,-0.21558 -1.47312,0 -2.89233,0.0719 -4.25764,0.21558 -1.36533,0.10779 -2.71268,0.28743 -4.04207,0.53894"
         id="path3130"
         style="font-size:110.37530518px;font-variant:normal;font-weight:bold;writing-mode:lr-tb;fill:#231f20;fill-opacity:1;fill-rule:nonzero;stroke:none;font-family:ZapfHumnst BT;-inkscape-font-specification:ZapfHumnst BT" />
      <path
         d="m 149.31232,484.62258 c -1e-5,6.35953 1.50902,11.40762 4.52712,15.14427 3.05397,3.73667 7.14993,5.605 12.28787,5.60499 2.55096,10e-6 4.99416,-0.43115 7.32961,-1.29346 2.33537,-0.8623 4.59893,-2.17372 6.79067,-3.93428 l 1.07788,0.80842 -2.42523,6.25172 c -2.29954,1.61683 -5.01221,2.8564 -8.13803,3.7187 -3.08997,0.86231 -6.44937,1.29346 -10.07821,1.29346 -8.58716,0 -15.32393,-2.53302 -20.21032,-7.59908 -4.85049,-5.06604 -7.27572,-12.07228 -7.27572,-21.01873 0,-8.04817 2.42523,-14.55139 7.27572,-19.5097 4.85046,-4.95821 11.26386,-7.43734 19.24022,-7.4374 7.58108,6e-5 13.38368,2.10193 17.40783,6.30562 4.05998,4.20379 6.08999,10.23994 6.09004,18.10845 -5e-5,0.9342 -0.018,1.65278 -0.0539,2.15577 -6e-5,0.50304 -0.018,0.95216 -0.0539,1.34735 l -33.79166,0.0539 m 0,-5.44332 18.70129,0 c -4e-5,-0.39519 0.0179,-0.88024 0.0539,-1.45514 0.0359,-0.61077 0.0539,-1.00599 0.0539,-1.18567 -4e-5,-4.99416 -0.73659,-8.76675 -2.20966,-11.31778 -1.43722,-2.55095 -3.57502,-3.82644 -6.41341,-3.82649 -3.23368,5e-5 -5.74874,1.45519 -7.54519,4.36543 -1.76056,2.91033 -2.64083,7.06018 -2.64082,12.44956 l 0,0.97009"
         id="path3132"
         style="font-size:110.37530518px;font-variant:normal;font-weight:bold;writing-mode:lr-tb;fill:#231f20;fill-opacity:1;fill-rule:nonzero;stroke:none;font-family:ZapfHumnst BT;-inkscape-font-specification:ZapfHumnst BT" />
    </g>
    <path
       d="m 354.97642,779.86311 0.0472,-111.78758"
       transform="matrix(1.0680649,0.03137802,4.5061323e-4,0.79634018,52.296445,45.589981)"
       id="path14272-8-8"
       style="fill:none;stroke:#ebb11f;stroke-width:5.42157507;stroke-linecap:round;stroke-linejoin:round;stroke-miterlimit:4;stroke-opacity:1;stroke-dasharray:none" />
    <path
       d="m 354.97642,779.86311 0.0472,-111.78758"
       transform="matrix(1.0680649,0.02176674,4.5061323e-4,0.55241636,46.225016,60.238211)"
       id="path14272-8-8-9"
       style="fill:none;stroke:#ebb11f;stroke-width:6.50940847;stroke-linecap:round;stroke-linejoin:round;stroke-miterlimit:4;stroke-opacity:1;stroke-dasharray:none" />
    <path
       d="m 355,779.86218 0.0147,-113.26655"
       transform="matrix(-0.68013133,-0.69915023,0.52081234,-0.47423207,325.9157,1150.957)"
       id="path14272-4-0"
       style="fill:none;stroke:#f6f69f;stroke-width:6.03388691;stroke-linecap:round;stroke-linejoin:round;stroke-miterlimit:4;stroke-opacity:1;stroke-dasharray:none" />
    <path
       d="m 355,779.86218 0,-111.78572"
       transform="matrix(0.4605642,-0.96416129,0.72065441,0.31837901,-371.0714,776.91068)"
       id="path14272"
       style="fill:none;stroke:#e9ddfc;stroke-width:5.45070887;stroke-linecap:round;stroke-linejoin:round;stroke-miterlimit:4;stroke-opacity:1;stroke-dasharray:none" />
    <path
       d="M 355,779.86218 354.70605,665.59042"
       transform="matrix(-0.27732861,-0.2818046,0.21236511,-0.19114744,311.53619,910.05699)"
       id="path14272-4"
       style="fill:none;stroke:#e9ddfc;stroke-width:14.88358116;stroke-linecap:round;stroke-linejoin:round;stroke-miterlimit:4;stroke-opacity:1;stroke-dasharray:none" />
    <path
       d="m 355,779.86218 0,-111.78572"
       transform="matrix(0.46724158,-0.97914515,0.73110264,0.32332687,-472.78971,743.30514)"
       id="path14272-1"
       style="fill:none;stroke:#e9ddfc;stroke-width:5.37005424;stroke-linecap:round;stroke-linejoin:round;stroke-miterlimit:4;stroke-opacity:1;stroke-dasharray:none" />
    <path
       d="m 355,779.86218 0,-111.78572"
       transform="matrix(0.49932689,-1.0511443,0.78130719,0.34710196,-439.69297,646.68794)"
       id="path14272-1-8"
       style="fill:none;stroke:#e9ddfc;stroke-width:5.01359558;stroke-linecap:round;stroke-linejoin:round;stroke-miterlimit:4;stroke-opacity:1;stroke-dasharray:none" />
    <path
       d="m 355,779.86218 0,-111.78572"
       transform="matrix(-0.68013133,-0.69915023,0.52081234,-0.47423207,435.88827,1049.1627)"
       id="path14272-4-0-8"
       style="fill:none;stroke:#f6f69f;stroke-width:6.03388691;stroke-linecap:round;stroke-linejoin:round;stroke-miterlimit:4;stroke-opacity:1;stroke-dasharray:none" />
    <path
       d="m 355,779.86218 0.13674,-112.35385"
       transform="matrix(-0.64870168,-0.66658539,0.496745,-0.45214342,324.21149,975.44506)"
       id="path14272-4-0-1"
       style="fill:none;stroke:#f6f69f;stroke-width:6.32744551;stroke-linecap:round;stroke-linejoin:round;stroke-miterlimit:4;stroke-opacity:1;stroke-dasharray:none" />
    <path
       d="m 355,779.86218 0,-111.78572"
       transform="matrix(0.44991982,-0.94027428,0.70399892,0.3104912,-277.16301,678.31473)"
       id="path14272-1-8-0"
       style="fill:none;stroke:#f6f69f;stroke-width:5.5844202;stroke-linecap:round;stroke-linejoin:round;stroke-miterlimit:4;stroke-opacity:1;stroke-dasharray:none" />
    <path
       d="M 355.12294,780.56223 355,668.07646"
       transform="matrix(0.48582149,-1.0208367,0.76017501,0.33709398,-340.52398,536.3385)"
       id="path14272-1-8-0-5"
       style="fill:none;stroke:#f6f69f;stroke-width:5.15770435;stroke-linecap:round;stroke-linejoin:round;stroke-miterlimit:4;stroke-opacity:1;stroke-dasharray:none" />
    <path
       d="m 355,779.86218 0.0822,-114.26"
       transform="matrix(0.23222996,-0.40349326,0.33248482,0.14898077,154.01474,708.1133)"
       id="path14272-1-8-0-0"
       style="fill:none;stroke:#f4af92;stroke-width:12.17149734;stroke-linecap:round;stroke-linejoin:round;stroke-miterlimit:4;stroke-opacity:1;stroke-dasharray:none" />
    <path
       d="m 355,779.86218 0,-111.78572"
       transform="matrix(-0.61829193,-0.63300976,0.47345866,-0.42936913,399.22409,1192.6629)"
       id="path14272-4-8"
       style="fill:none;stroke:#f4af92;stroke-width:6.65084505;stroke-linecap:round;stroke-linejoin:round;stroke-miterlimit:4;stroke-opacity:1;stroke-dasharray:none" />
    <path
       d="m 355,779.86218 0,-111.78572"
       transform="matrix(0.20957423,-0.35852802,0.30004849,0.13237837,294.8988,607.38216)"
       id="path14272-1-8-0-0-7"
       style="fill:none;stroke:#f4af92;stroke-width:13.5922327;stroke-linecap:round;stroke-linejoin:round;stroke-miterlimit:4;stroke-opacity:1;stroke-dasharray:none" />
    <path
       d="m 355,779.86218 0,-111.78572"
       transform="matrix(-0.61829193,-0.63300976,0.47345866,-0.42936913,506.74817,1094.9278)"
       id="path14272-4-8-0"
       style="fill:none;stroke:#f4af92;stroke-width:6.65084505;stroke-linecap:round;stroke-linejoin:round;stroke-miterlimit:4;stroke-opacity:1;stroke-dasharray:none" />
    <path
       d="m 355,779.86218 0,-111.78572"
       transform="matrix(-0.47589389,-0.48590517,0.36441699,-0.32958841,421.60388,918.00221)"
       id="path14272-4-8-0-9"
       style="fill:none;stroke:#f4af92;stroke-width:8.65262699;stroke-linecap:round;stroke-linejoin:round;stroke-miterlimit:4;stroke-opacity:1;stroke-dasharray:none" />
    <path
       d="m 309.70965,329.89275 0,-11.82131 -31.33851,-14.47705 -21.89097,18.29019 3.5e-4,21.00833 0,13.63312 17.82832,8.49416 -13.24446,11.88423 0,17.87053 -7.14285,-3.31697 -9.09443,8.2985 m 36.53527,19.65609 0,24.5231 32.90922,15.12153 20.75374,-18.71124 0,-24.24246 m 17.09377,-55.02117 21.356,9.65374 -0.25,35.27102 -20.89285,18.51339 -17.30692,-8.41698 0,-10.95495 -17.7408,-8.10792 m -7.44988,-53.19425 -0.0524,-13.96278 9.88668,-9.82262 32.45019,14.79137 0,26.21926 -0.0833,9.34489 -18.80608,17.30556 -3.0026,-1.34164 -12.94258,10.66021 -2.83247,2.56409 0,3.51844 -23.3731,20.77037 -9.71662,-4.48096 -20.29799,-9.29055 0,-15.34707 m 23.32527,-38.72503 30.01825,13.76894 0.0442,29.78586 m -40.14325,-34.58453 10.05733,-8.9588 13.70141,6.22346 11.76707,-10.5589 0,-7.87957 20.39245,9.63592 0,32.89812 m -73.74654,-43.48751 -6.42507,-3.37242 -22.38393,20.24107 -0.0221,20.00898 m 53.7129,64.16513 -17.48962,15.88961 -29.45226,-13.62294 -1.79356,-0.59257 0.22321,-34.9617 11.977,-10.89159 -17.22253,-7.89671 0.0449,-12.08923 -5.07612,-2.19199 -22.58035,19.87145 0,35.13298 31.09934,14.68192 1.53459,-1.65513"
       transform="matrix(2.8036733,0,0,2.8036733,-384.76141,-506.22786)"
       id="path7649"
       style="fill:none;stroke:#000000;stroke-width:2.49672461;stroke-linecap:round;stroke-linejoin:round;stroke-miterlimit:4;stroke-opacity:1;stroke-dasharray:none" />
  </g>
</svg>
